<svg width="172" height="172" viewBox="0 0 172 172" fill="none" xmlns="http://www.w3.org/2000/svg">
<g clip-path="url(#clip0_11_159)">
<path d="M43 14.3333V28.6666H35.8333C27.95 28.6666 21.5 35.1166 21.5 42.9999V143.333C21.5 151.217 27.95 157.667 35.8333 157.667H136.167C144.05 157.667 150.5 151.217 150.5 143.333V42.9999C150.5 35.1166 144.05 28.6666 136.167 28.6666H129V14.3333H114.667V28.6666H57.3333V14.3333H43ZM35.8333 64.4999H136.167V143.333H35.8333V64.4999Z" fill="black"/>
<path d="M113.95 131.15L96.75 120.4L78.8333 131.15L83.1333 111.8L68.0833 98.8999L88.15 97.4666L96.0333 78.8333L103.917 97.4666L123.983 99.6166L108.933 112.517L113.95 131.15Z" fill="black"/>
</g>
<defs>
<clipPath id="clip0_11_159">
<rect width="172" height="172" fill="white"/>
</clipPath>
</defs>
</svg>
