<svg width="40" height="40" viewBox="0 0 40 40" fill="none" xmlns="http://www.w3.org/2000/svg">
<path d="M13 24.4999H32L35.5 10.4999H9.5" stroke="#333333" stroke-linecap="round" stroke-linejoin="round"/>
<path d="M14.4754 30.4014L8.5 6.5H4.5" stroke="#333333" stroke-linecap="round" stroke-linejoin="round"/>
<path d="M13.201 30.7494C14.0048 30.2853 14.9952 30.2853 15.7991 30.7494C16.6029 31.2135 17.0981 32.0712 17.0981 32.9994C17.0981 33.9276 16.6029 34.7853 15.7991 35.2494C14.9952 35.7135 14.0048 35.7135 13.201 35.2494C12.3971 34.7853 11.902 33.9276 11.902 32.9994C11.902 32.0712 12.3971 31.2135 13.201 30.7494Z" stroke="#333333" stroke-linecap="round" stroke-linejoin="round"/>
<path d="M15.2095 30.5H30.2905" stroke="#333333" stroke-linecap="round" stroke-linejoin="round"/>
<path d="M29.701 30.7494C30.5048 30.2853 31.4952 30.2853 32.2991 30.7494C33.1029 31.2135 33.5981 32.0712 33.5981 32.9994C33.5981 33.9276 33.1029 34.7853 32.2991 35.2494C31.4952 35.7135 30.5048 35.7135 29.701 35.2494C28.8971 34.7853 28.402 33.9276 28.402 32.9994C28.402 32.0712 28.8971 31.2135 29.701 30.7494Z" stroke="#333333" stroke-linecap="round" stroke-linejoin="round"/>
</svg>
