<svg width="99" height="19" viewBox="0 0 99 19" fill="none" xmlns="http://www.w3.org/2000/svg">
<path d="M9.5 1.13262L11.3 6.67249L11.3786 6.91434H11.6329H17.4578L12.7454 10.3382L12.5396 10.4876L12.6182 10.7295L14.4182 16.2694L9.70572 12.8455L9.5 12.6961L9.29428 12.8455L4.58178 16.2694L6.38179 10.7295L6.46037 10.4876L6.25465 10.3382L1.54215 6.91434H7.36712H7.62141L7.69999 6.67249L9.5 1.13262Z" stroke="#333333" stroke-width="0.7"/>
<path d="M29.5 1.13262L31.3 6.67249L31.3786 6.91434H31.6329H37.4578L32.7454 10.3382L32.5396 10.4876L32.6182 10.7295L34.4182 16.2694L29.7057 12.8455L29.5 12.6961L29.2943 12.8455L24.5818 16.2694L26.3818 10.7295L26.4604 10.4876L26.2546 10.3382L21.5422 6.91434H27.3671H27.6214L27.7 6.67249L29.5 1.13262Z" stroke="#333333" stroke-width="0.7"/>
<path d="M49.5 1.13262L51.3 6.67249L51.3786 6.91434H51.6329H57.4578L52.7454 10.3382L52.5396 10.4876L52.6182 10.7295L54.4182 16.2694L49.7057 12.8455L49.5 12.6961L49.2943 12.8455L44.5818 16.2694L46.3818 10.7295L46.4604 10.4876L46.2546 10.3382L41.5422 6.91434H47.3671H47.6214L47.7 6.67249L49.5 1.13262Z" stroke="#333333" stroke-width="0.7"/>
<path d="M69.5 1.13262L71.3 6.67249L71.3786 6.91434H71.6329H77.4578L72.7454 10.3382L72.5396 10.4876L72.6182 10.7295L74.4182 16.2694L69.7057 12.8455L69.5 12.6961L69.2943 12.8455L64.5818 16.2694L66.3818 10.7295L66.4604 10.4876L66.2546 10.3382L61.5422 6.91434H67.3671H67.6214L67.7 6.67249L69.5 1.13262Z" stroke="#333333" stroke-width="0.7"/>
<path d="M89.5 1.13262L91.3 6.67249L91.3786 6.91434H91.6329H97.4578L92.7454 10.3382L92.5396 10.4876L92.6182 10.7295L94.4182 16.2694L89.7057 12.8455L89.5 12.6961L89.2943 12.8455L84.5818 16.2694L86.3818 10.7295L86.4604 10.4876L86.2546 10.3382L81.5422 6.91434H87.3671H87.6214L87.7 6.67249L89.5 1.13262Z" stroke="#333333" stroke-width="0.7"/>
</svg>
