<svg width="30" height="30" viewBox="0 0 30 30" fill="none" xmlns="http://www.w3.org/2000/svg">
<path d="M22.5 26.2501H7.5C6.67159 26.2501 6 25.5785 6 24.7501V24.249C6 22.0692 7.35229 20.1182 9.39337 19.3533C13.0083 17.9984 16.9917 17.9984 20.6066 19.3533C22.6477 20.1182 24 22.0692 24 24.249V24.7501C24 25.5785 23.3284 26.2501 22.5 26.2501Z" stroke="#333333" stroke-linecap="round" stroke-linejoin="round"/>
<path d="M12.7129 14.5752C14.1484 15.3126 15.8513 15.3126 17.2868 14.5752C18.6228 13.889 19.5799 12.6391 19.8942 11.1704L19.9781 10.7784C20.2994 9.27656 19.9562 7.7091 19.0365 6.47899L18.9018 6.29888C17.982 5.06861 16.5359 4.34419 14.9999 4.34419C13.4638 4.34419 12.0176 5.06861 11.0979 6.29888L10.9632 6.47899C10.0435 7.7091 9.70028 9.27656 10.0216 10.7784L10.1055 11.1704C10.4198 12.6391 11.3769 13.889 12.7129 14.5752Z" stroke="#333333" stroke-linecap="round" stroke-linejoin="round"/>
</svg>
